<mxfile host="app.diagrams.net" modified="2021-04-27T06:38:20.420Z" agent="5.0 (Macintosh; Intel Mac OS X 10_14_2) AppleWebKit/537.36 (KHTML, like Gecko) Chrome/90.0.4430.85 Safari/537.36" etag="ZmbP0RzVRAPbthI9jeFN" version="14.6.0" type="github">
  <diagram name="Page-1" id="13e1069c-82ec-6db2-03f1-153e76fe0fe0">
    <mxGraphModel dx="1426" dy="770" grid="1" gridSize="10" guides="1" tooltips="1" connect="1" arrows="1" fold="1" page="1" pageScale="1" pageWidth="1100" pageHeight="850" background="#ffffff" math="0" shadow="0">
      <root>
        <mxCell id="0" />
        <mxCell id="1" parent="0" />
        <mxCell id="7baba1c4bc27f4b0-2" value="edgy-server" style="shape=umlLifeline;perimeter=lifelinePerimeter;whiteSpace=wrap;html=1;container=1;collapsible=0;recursiveResize=0;outlineConnect=0;rounded=1;shadow=0;comic=0;labelBackgroundColor=none;strokeWidth=1;fontFamily=Verdana;fontSize=12;align=center;" parent="1" vertex="1">
          <mxGeometry x="240" y="80" width="100" height="580" as="geometry" />
        </mxCell>
        <mxCell id="7baba1c4bc27f4b0-10" value="" style="html=1;points=[];perimeter=orthogonalPerimeter;rounded=0;shadow=0;comic=0;labelBackgroundColor=none;strokeWidth=1;fontFamily=Verdana;fontSize=12;align=center;" parent="7baba1c4bc27f4b0-2" vertex="1">
          <mxGeometry x="45" y="100" width="10" height="180" as="geometry" />
        </mxCell>
        <mxCell id="HSnopfNy_bj5RkSUK2bC-4" value="" style="html=1;points=[];perimeter=orthogonalPerimeter;rounded=0;shadow=0;comic=0;labelBackgroundColor=none;strokeWidth=1;fontFamily=Verdana;fontSize=12;align=center;" vertex="1" parent="7baba1c4bc27f4b0-2">
          <mxGeometry x="45" y="360" width="10" height="220" as="geometry" />
        </mxCell>
        <mxCell id="7baba1c4bc27f4b0-3" value="mongo" style="shape=umlLifeline;perimeter=lifelinePerimeter;whiteSpace=wrap;html=1;container=1;collapsible=0;recursiveResize=0;outlineConnect=0;rounded=1;shadow=0;comic=0;labelBackgroundColor=none;strokeWidth=1;fontFamily=Verdana;fontSize=12;align=center;" parent="1" vertex="1">
          <mxGeometry x="400" y="80" width="100" height="580" as="geometry" />
        </mxCell>
        <mxCell id="7baba1c4bc27f4b0-13" value="" style="html=1;points=[];perimeter=orthogonalPerimeter;rounded=0;shadow=0;comic=0;labelBackgroundColor=none;strokeWidth=1;fontFamily=Verdana;fontSize=12;align=center;" parent="7baba1c4bc27f4b0-3" vertex="1">
          <mxGeometry x="45" y="120" width="10" height="160" as="geometry" />
        </mxCell>
        <mxCell id="HSnopfNy_bj5RkSUK2bC-8" value="" style="html=1;points=[];perimeter=orthogonalPerimeter;rounded=0;shadow=0;comic=0;labelBackgroundColor=none;strokeWidth=1;fontFamily=Verdana;fontSize=12;align=center;" vertex="1" parent="7baba1c4bc27f4b0-3">
          <mxGeometry x="45" y="360" width="10" height="100" as="geometry" />
        </mxCell>
        <mxCell id="7baba1c4bc27f4b0-4" value="apiserver" style="shape=umlLifeline;perimeter=lifelinePerimeter;whiteSpace=wrap;html=1;container=1;collapsible=0;recursiveResize=0;outlineConnect=0;rounded=1;shadow=0;comic=0;labelBackgroundColor=none;strokeWidth=1;fontFamily=Verdana;fontSize=12;align=center;" parent="1" vertex="1">
          <mxGeometry x="540" y="80" width="100" height="580" as="geometry" />
        </mxCell>
        <mxCell id="7baba1c4bc27f4b0-5" value="etcd" style="shape=umlLifeline;perimeter=lifelinePerimeter;whiteSpace=wrap;html=1;container=1;collapsible=0;recursiveResize=0;outlineConnect=0;rounded=1;shadow=0;comic=0;labelBackgroundColor=none;strokeWidth=1;fontFamily=Verdana;fontSize=12;align=center;" parent="1" vertex="1">
          <mxGeometry x="680" y="80" width="100" height="620" as="geometry" />
        </mxCell>
        <mxCell id="7baba1c4bc27f4b0-19" value="" style="html=1;points=[];perimeter=orthogonalPerimeter;rounded=0;shadow=0;comic=0;labelBackgroundColor=none;strokeWidth=1;fontFamily=Verdana;fontSize=12;align=center;" parent="7baba1c4bc27f4b0-5" vertex="1">
          <mxGeometry x="45" y="460" width="10" height="160" as="geometry" />
        </mxCell>
        <mxCell id="7baba1c4bc27f4b0-6" value="edgy-controller" style="shape=umlLifeline;perimeter=lifelinePerimeter;whiteSpace=wrap;html=1;container=1;collapsible=0;recursiveResize=0;outlineConnect=0;rounded=1;shadow=0;comic=0;labelBackgroundColor=none;strokeWidth=1;fontFamily=Verdana;fontSize=12;align=center;" parent="1" vertex="1">
          <mxGeometry x="820" y="80" width="100" height="580" as="geometry" />
        </mxCell>
        <mxCell id="7baba1c4bc27f4b0-7" value="knative" style="shape=umlLifeline;perimeter=lifelinePerimeter;whiteSpace=wrap;html=1;container=1;collapsible=0;recursiveResize=0;outlineConnect=0;rounded=1;shadow=0;comic=0;labelBackgroundColor=none;strokeWidth=1;fontFamily=Verdana;fontSize=12;align=center;" parent="1" vertex="1">
          <mxGeometry x="960" y="80" width="100" height="640" as="geometry" />
        </mxCell>
        <mxCell id="7baba1c4bc27f4b0-22" value="" style="html=1;points=[];perimeter=orthogonalPerimeter;rounded=0;shadow=0;comic=0;labelBackgroundColor=none;strokeWidth=1;fontFamily=Verdana;fontSize=12;align=center;" parent="1" vertex="1">
          <mxGeometry x="585" y="440" width="10" height="220" as="geometry" />
        </mxCell>
        <mxCell id="7baba1c4bc27f4b0-25" value="" style="html=1;points=[];perimeter=orthogonalPerimeter;rounded=0;shadow=0;comic=0;labelBackgroundColor=none;strokeColor=#000000;strokeWidth=1;fillColor=#FFFFFF;fontFamily=Verdana;fontSize=12;fontColor=#000000;align=center;" parent="1" vertex="1">
          <mxGeometry x="1005" y="672" width="10" height="30" as="geometry" />
        </mxCell>
        <mxCell id="7baba1c4bc27f4b0-28" value="" style="html=1;points=[];perimeter=orthogonalPerimeter;rounded=0;shadow=0;comic=0;labelBackgroundColor=none;strokeWidth=1;fontFamily=Verdana;fontSize=12;align=center;" parent="1" vertex="1">
          <mxGeometry x="865" y="593" width="10" height="110" as="geometry" />
        </mxCell>
        <mxCell id="7baba1c4bc27f4b0-11" value="create config" style="html=1;verticalAlign=bottom;endArrow=block;entryX=0;entryY=0;labelBackgroundColor=none;fontFamily=Verdana;fontSize=12;edgeStyle=elbowEdgeStyle;elbow=horizontal;" parent="1" target="7baba1c4bc27f4b0-10" edge="1">
          <mxGeometry relative="1" as="geometry">
            <mxPoint x="155" y="180" as="sourcePoint" />
          </mxGeometry>
        </mxCell>
        <mxCell id="7baba1c4bc27f4b0-14" value="create" style="html=1;verticalAlign=bottom;endArrow=block;entryX=0;entryY=0;labelBackgroundColor=none;fontFamily=Verdana;fontSize=12;edgeStyle=elbowEdgeStyle;elbow=vertical;" parent="1" source="7baba1c4bc27f4b0-10" target="7baba1c4bc27f4b0-13" edge="1">
          <mxGeometry relative="1" as="geometry">
            <mxPoint x="370" y="200" as="sourcePoint" />
          </mxGeometry>
        </mxCell>
        <mxCell id="7baba1c4bc27f4b0-40" value="Note" style="shape=note;whiteSpace=wrap;html=1;size=14;verticalAlign=top;align=left;spacingTop=-6;rounded=0;shadow=0;comic=0;labelBackgroundColor=none;strokeWidth=1;fontFamily=Verdana;fontSize=12" parent="1" vertex="1">
          <mxGeometry x="100" y="30" width="100" height="35" as="geometry" />
        </mxCell>
        <mxCell id="7baba1c4bc27f4b0-41" value="Note" style="shape=note;whiteSpace=wrap;html=1;size=14;verticalAlign=top;align=left;spacingTop=-6;rounded=0;shadow=0;comic=0;labelBackgroundColor=none;strokeWidth=1;fontFamily=Verdana;fontSize=12" parent="1" vertex="1">
          <mxGeometry x="240" y="30" width="100" height="35" as="geometry" />
        </mxCell>
        <mxCell id="7baba1c4bc27f4b0-42" value="Note" style="shape=note;whiteSpace=wrap;html=1;size=14;verticalAlign=top;align=left;spacingTop=-6;rounded=0;shadow=0;comic=0;labelBackgroundColor=none;strokeWidth=1;fontFamily=Verdana;fontSize=12" parent="1" vertex="1">
          <mxGeometry x="400" y="30" width="100" height="35" as="geometry" />
        </mxCell>
        <mxCell id="7baba1c4bc27f4b0-43" value="Note" style="shape=note;whiteSpace=wrap;html=1;size=14;verticalAlign=top;align=left;spacingTop=-6;rounded=0;shadow=0;comic=0;labelBackgroundColor=none;strokeWidth=1;fontFamily=Verdana;fontSize=12" parent="1" vertex="1">
          <mxGeometry x="540" y="30" width="100" height="35" as="geometry" />
        </mxCell>
        <mxCell id="7baba1c4bc27f4b0-44" value="Note" style="shape=note;whiteSpace=wrap;html=1;size=14;verticalAlign=top;align=left;spacingTop=-6;rounded=0;shadow=0;comic=0;labelBackgroundColor=none;strokeWidth=1;fontFamily=Verdana;fontSize=12" parent="1" vertex="1">
          <mxGeometry x="680" y="30" width="100" height="35" as="geometry" />
        </mxCell>
        <mxCell id="7baba1c4bc27f4b0-45" value="Note" style="shape=note;whiteSpace=wrap;html=1;size=14;verticalAlign=top;align=left;spacingTop=-6;rounded=0;shadow=0;comic=0;labelBackgroundColor=none;strokeWidth=1;fontFamily=Verdana;fontSize=12" parent="1" vertex="1">
          <mxGeometry x="820" y="30" width="100" height="35" as="geometry" />
        </mxCell>
        <mxCell id="7baba1c4bc27f4b0-46" value="Note" style="shape=note;whiteSpace=wrap;html=1;size=14;verticalAlign=top;align=left;spacingTop=-6;rounded=0;shadow=0;comic=0;labelBackgroundColor=none;strokeWidth=1;fontFamily=Verdana;fontSize=12" parent="1" vertex="1">
          <mxGeometry x="960" y="30" width="100" height="35" as="geometry" />
        </mxCell>
        <mxCell id="HSnopfNy_bj5RkSUK2bC-2" value="" style="shape=umlLifeline;participant=umlActor;perimeter=lifelinePerimeter;whiteSpace=wrap;html=1;container=1;collapsible=0;recursiveResize=0;verticalAlign=top;spacingTop=36;outlineConnect=0;" vertex="1" parent="1">
          <mxGeometry x="140" y="82" width="20" height="570" as="geometry" />
        </mxCell>
        <mxCell id="HSnopfNy_bj5RkSUK2bC-5" value="return" style="html=1;verticalAlign=bottom;endArrow=block;entryX=0;entryY=0;labelBackgroundColor=none;fontFamily=Verdana;fontSize=12;edgeStyle=elbowEdgeStyle;elbow=vertical;" edge="1" parent="1">
          <mxGeometry relative="1" as="geometry">
            <mxPoint x="445" y="280.0000000000001" as="sourcePoint" />
            <mxPoint x="295" y="280" as="targetPoint" />
          </mxGeometry>
        </mxCell>
        <mxCell id="HSnopfNy_bj5RkSUK2bC-6" value="return" style="html=1;verticalAlign=bottom;endArrow=block;labelBackgroundColor=none;fontFamily=Verdana;fontSize=12;edgeStyle=elbowEdgeStyle;elbow=vertical;" edge="1" parent="1">
          <mxGeometry relative="1" as="geometry">
            <mxPoint x="284" y="270" as="sourcePoint" />
            <mxPoint x="154" y="270" as="targetPoint" />
          </mxGeometry>
        </mxCell>
        <mxCell id="HSnopfNy_bj5RkSUK2bC-7" value="install flowchart" style="html=1;verticalAlign=bottom;endArrow=block;entryX=0;entryY=0;labelBackgroundColor=none;fontFamily=Verdana;fontSize=12;edgeStyle=elbowEdgeStyle;elbow=horizontal;" edge="1" parent="1">
          <mxGeometry relative="1" as="geometry">
            <mxPoint x="150" y="450.5" as="sourcePoint" />
            <mxPoint x="280" y="450.50000000000034" as="targetPoint" />
          </mxGeometry>
        </mxCell>
        <mxCell id="HSnopfNy_bj5RkSUK2bC-9" value="get config" style="html=1;verticalAlign=bottom;endArrow=block;entryX=0;entryY=0;labelBackgroundColor=none;fontFamily=Verdana;fontSize=12;edgeStyle=elbowEdgeStyle;elbow=horizontal;" edge="1" parent="1">
          <mxGeometry relative="1" as="geometry">
            <mxPoint x="300" y="467" as="sourcePoint" />
            <mxPoint x="450" y="467.0000000000001" as="targetPoint" />
          </mxGeometry>
        </mxCell>
        <mxCell id="HSnopfNy_bj5RkSUK2bC-10" value="return" style="html=1;verticalAlign=bottom;endArrow=block;entryX=0;entryY=0;labelBackgroundColor=none;fontFamily=Verdana;fontSize=12;edgeStyle=elbowEdgeStyle;elbow=vertical;" edge="1" parent="1">
          <mxGeometry relative="1" as="geometry">
            <mxPoint x="446" y="500" as="sourcePoint" />
            <mxPoint x="296" y="500" as="targetPoint" />
          </mxGeometry>
        </mxCell>
        <mxCell id="HSnopfNy_bj5RkSUK2bC-11" value="create config/flowchart&amp;nbsp;" style="html=1;verticalAlign=bottom;endArrow=block;labelBackgroundColor=none;fontFamily=Verdana;fontSize=12;edgeStyle=elbowEdgeStyle;elbow=vertical;" edge="1" parent="1">
          <mxGeometry relative="1" as="geometry">
            <mxPoint x="296" y="579.5" as="sourcePoint" />
            <mxPoint x="585.5" y="580" as="targetPoint" />
          </mxGeometry>
        </mxCell>
        <mxCell id="HSnopfNy_bj5RkSUK2bC-12" value="create" style="html=1;verticalAlign=bottom;endArrow=block;entryX=0;entryY=0;labelBackgroundColor=none;fontFamily=Verdana;fontSize=12;edgeStyle=elbowEdgeStyle;elbow=vertical;" edge="1" parent="1">
          <mxGeometry relative="1" as="geometry">
            <mxPoint x="315" y="220" as="sourcePoint" />
            <mxPoint x="465" y="220.0000000000001" as="targetPoint" />
          </mxGeometry>
        </mxCell>
        <mxCell id="HSnopfNy_bj5RkSUK2bC-13" value="create" style="html=1;verticalAlign=bottom;endArrow=block;entryX=0;entryY=0;labelBackgroundColor=none;fontFamily=Verdana;fontSize=12;edgeStyle=elbowEdgeStyle;elbow=vertical;" edge="1" parent="1">
          <mxGeometry relative="1" as="geometry">
            <mxPoint x="599" y="598" as="sourcePoint" />
            <mxPoint x="724" y="598" as="targetPoint" />
          </mxGeometry>
        </mxCell>
        <mxCell id="HSnopfNy_bj5RkSUK2bC-15" value="return" style="html=1;verticalAlign=bottom;endArrow=block;entryX=0;entryY=0;labelBackgroundColor=none;fontFamily=Verdana;fontSize=12;edgeStyle=elbowEdgeStyle;elbow=vertical;" edge="1" parent="1">
          <mxGeometry relative="1" as="geometry">
            <mxPoint x="725" y="620" as="sourcePoint" />
            <mxPoint x="600" y="620" as="targetPoint" />
          </mxGeometry>
        </mxCell>
        <mxCell id="HSnopfNy_bj5RkSUK2bC-16" value="return" style="html=1;verticalAlign=bottom;endArrow=block;labelBackgroundColor=none;fontFamily=Verdana;fontSize=12;edgeStyle=elbowEdgeStyle;elbow=vertical;" edge="1" parent="1">
          <mxGeometry relative="1" as="geometry">
            <mxPoint x="585" y="630.5" as="sourcePoint" />
            <mxPoint x="295.5" y="630" as="targetPoint" />
          </mxGeometry>
        </mxCell>
        <mxCell id="HSnopfNy_bj5RkSUK2bC-17" value="return" style="html=1;verticalAlign=bottom;endArrow=block;entryX=0;entryY=0;labelBackgroundColor=none;fontFamily=Verdana;fontSize=12;edgeStyle=elbowEdgeStyle;elbow=horizontal;" edge="1" parent="1">
          <mxGeometry relative="1" as="geometry">
            <mxPoint x="280" y="640.0000000000005" as="sourcePoint" />
            <mxPoint x="150" y="640" as="targetPoint" />
          </mxGeometry>
        </mxCell>
        <mxCell id="HSnopfNy_bj5RkSUK2bC-18" value="watch" style="html=1;verticalAlign=bottom;endArrow=block;entryX=0;entryY=0;labelBackgroundColor=none;fontFamily=Verdana;fontSize=12;edgeStyle=elbowEdgeStyle;elbow=horizontal;" edge="1" parent="1">
          <mxGeometry relative="1" as="geometry">
            <mxPoint x="865" y="660" as="sourcePoint" />
            <mxPoint x="740" y="660" as="targetPoint" />
          </mxGeometry>
        </mxCell>
        <mxCell id="HSnopfNy_bj5RkSUK2bC-20" value="return" style="html=1;verticalAlign=bottom;endArrow=block;entryX=0;entryY=0;labelBackgroundColor=none;fontFamily=Verdana;fontSize=12;edgeStyle=elbowEdgeStyle;elbow=horizontal;" edge="1" parent="1">
          <mxGeometry relative="1" as="geometry">
            <mxPoint x="740" y="680" as="sourcePoint" />
            <mxPoint x="865" y="680" as="targetPoint" />
          </mxGeometry>
        </mxCell>
        <mxCell id="HSnopfNy_bj5RkSUK2bC-21" value="create with config" style="html=1;verticalAlign=bottom;endArrow=block;entryX=0;entryY=0;labelBackgroundColor=none;fontFamily=Verdana;fontSize=12;edgeStyle=elbowEdgeStyle;elbow=vertical;" edge="1" parent="1">
          <mxGeometry relative="1" as="geometry">
            <mxPoint x="875" y="690" as="sourcePoint" />
            <mxPoint x="1000" y="690" as="targetPoint" />
          </mxGeometry>
        </mxCell>
      </root>
    </mxGraphModel>
  </diagram>
</mxfile>
